<?xml version="1.0" encoding="utf-8"?>
<!-- Generator: Adobe Illustrator 19.2.1, SVG Export Plug-In . SVG Version: 6.00 Build 0)  -->
<svg version="1.1" id="Layer_1" xmlns="http://www.w3.org/2000/svg" xmlns:xlink="http://www.w3.org/1999/xlink" x="0px" y="0px"
	 width="303px" height="145.25px" viewBox="0 0 303 145.25" enable-background="new 0 0 303 145.25" xml:space="preserve">
<g>
	<g>
		<path fill="#231F20" d="M39.473,100.333L8.93,10.604L0.928,8.81l0.69-7.45h42.076l0.69,7.45l-8.967,1.794l21.766,66.079
			l21.69-66.079L68.94,8.81l0.69-7.45h27.315l0.69,7.45l-7.312,1.794L59.994,96.104L39.473,100.333z"/>
		<path fill="#231F20" d="M114.89,64.545c0.69,10.899,7.174,19.176,17.382,19.176c7.174,0,14.072-3.035,17.245-5.242l3.725,6.759
			c-8.002,7.45-15.176,10.761-27.729,14.899c-20.418,0-34.627-13.657-34.627-32.695c0-14.071,4.828-30.074,34.489-38.352
			c19.865,0,28.143,12.278,28.143,26.763v8.691H114.89z M130.894,55.991c0-10.485-1.932-17.106-7.588-17.106
			c-5.38,0-8.553,6.897-8.553,18.348L130.894,55.991z"/>
		<path fill="#231F20" d="M193.009,54.06l13.32-23.464h14.396l0.014,23.292h-18.365l-8.26,8.174v26.763l14.899,1.793l-0.689,7.587
			h-44.146l-0.69-7.587l7.174-1.793V42.472l-7.174,0.276l-0.689-7.863l19.176-3.724l8.553-0.552L193.009,54.06z"/>
		<path fill="#231F20" d="M264.593,29.09c20.555,0,28.42,5.656,28.42,20.831v26.625c0,5.243,0.276,7.864,1.517,10.347h6.484
			l1.104,7.588l-27.729,5.655l-4.552-11.312l-15.589,11.312c-13.244,0-22.762-7.45-22.762-19.038c0-6.621,3.035-11.864,7.036-15.037
			l30.35-9.381v-8.553c0-8.416-3.035-9.381-6.208-9.381c-2.483,0-4.552,0.551-6.484,1.793l-1.573,13.423l-21.053-0.037V40.393
			L264.593,29.09z M268.87,63.441l-10.76,4.277c-2.208,2.208-3.311,6.622-3.311,10.071c0,6.347,3.449,9.243,6.208,9.243
			c2.207,0,4.139-1.103,5.794-2.207l2.069-1.38V63.441z"/>
	</g>
	<g>
		<path fill="#231F20" d="M20.203,126.762h2.959v17.406h-2.959V126.762z"/>
		<path fill="#231F20" d="M38.305,139.145v-12.383h2.859v17.406h-3.133l-6.887-12.383v12.383h-2.86v-17.406h3.133L38.305,139.145z"
			/>
		<path fill="#231F20" d="M48.374,138.474c0,2.263,1.417,3.556,3.382,3.556c1.591,0,2.859-1.02,2.859-2.586
			c0-1.765-1.566-2.337-2.76-2.76c-3.183-1.119-5.744-2.089-5.744-5.57c0-2.884,2.487-4.774,5.396-4.774
			c3.133,0,5.545,2.213,5.545,5.445h-2.859c0-1.716-0.995-2.884-2.611-2.884c-1.417,0-2.611,0.746-2.611,2.213
			c0,1.417,1.244,2.088,2.537,2.561c2.711,0.97,5.968,2.114,5.968,5.445c0,3.581-2.736,5.47-5.968,5.47
			c-3.158,0-5.992-2.213-5.992-6.117H48.374z"/>
		<path fill="#231F20" d="M64.04,129.323h-4.302v-2.561h11.487v2.561H66.9v14.845H64.04V129.323z"/>
		<path fill="#231F20" d="M74.781,126.762h2.959v17.406h-2.959V126.762z"/>
		<path fill="#231F20" d="M85.598,129.323h-4.302v-2.561h11.487v2.561h-4.326v14.845h-2.859V129.323z"/>
		<path fill="#231F20" d="M96.215,126.762h2.86v11.587c0,1.989,1.343,3.68,3.381,3.68c2.089,0,3.431-1.691,3.431-3.68v-11.587h2.86
			v11.587c0,3.382-2.462,6.241-6.292,6.241c-3.754,0-6.241-2.859-6.241-6.241V126.762z"/>
		<path fill="#231F20" d="M116.48,129.323h-4.302v-2.561h11.487v2.561h-4.326v14.845h-2.859V129.323z"/>
		<path fill="#231F20" d="M130.082,129.323v4.923h7.186v2.561h-7.186v4.799h7.186v2.561h-10.046v-17.406h10.046v2.561H130.082z"/>
		<path fill="#231F20" d="M149.103,135.465c0-4.724,3.406-9.125,9-9.125c5.595,0,9.001,4.401,9.001,9.125
			c0,4.725-3.406,9.126-9.001,9.126C152.51,144.591,149.103,140.189,149.103,135.465z M164.097,135.465
			c0-3.381-2.288-6.564-5.993-6.564c-3.704,0-5.992,3.183-5.992,6.564c0,3.382,2.288,6.565,5.992,6.565
			C161.809,142.03,164.097,138.847,164.097,135.465z"/>
		<path fill="#231F20" d="M174.217,129.323v5.52h7.186v2.561h-7.186v6.763h-2.86v-17.406h10.046v2.561H174.217z"/>
		<path fill="#231F20" d="M203.256,138.523c0,3.382-2.039,6.067-5.694,6.067c-3.605,0-5.645-2.71-5.645-6.092h2.859
			c0,2.064,0.92,3.531,2.785,3.531c1.89,0,2.835-1.442,2.835-3.506v-11.761h2.859V138.523z"/>
		<path fill="#231F20" d="M208.129,126.762h2.86v11.587c0,1.989,1.343,3.68,3.381,3.68c2.089,0,3.431-1.691,3.431-3.68v-11.587h2.86
			v11.587c0,3.382-2.462,6.241-6.292,6.241c-3.754,0-6.241-2.859-6.241-6.241V126.762z"/>
		<path fill="#231F20" d="M227.748,138.474c0,2.263,1.417,3.556,3.382,3.556c1.591,0,2.859-1.02,2.859-2.586
			c0-1.765-1.566-2.337-2.76-2.76c-3.183-1.119-5.744-2.089-5.744-5.57c0-2.884,2.487-4.774,5.396-4.774
			c3.133,0,5.545,2.213,5.545,5.445h-2.859c0-1.716-0.995-2.884-2.611-2.884c-1.417,0-2.611,0.746-2.611,2.213
			c0,1.417,1.244,2.088,2.537,2.561c2.711,0.97,5.968,2.114,5.968,5.445c0,3.581-2.736,5.47-5.968,5.47
			c-3.158,0-5.992-2.213-5.992-6.117H227.748z"/>
		<path fill="#231F20" d="M243.413,129.323h-4.302v-2.561h11.487v2.561h-4.326v14.845h-2.859V129.323z"/>
		<path fill="#231F20" d="M254.154,126.762h2.959v17.406h-2.959V126.762z"/>
		<path fill="#231F20" d="M278.771,138.573c-0.77,3.381-3.978,6.017-8.255,6.017c-5.694,0-9.15-4.252-9.15-9.15
			c0-4.724,3.381-9.1,8.852-9.1c5.172,0,8.006,3.008,8.553,6.763h-3.009c-0.423-2.387-2.312-4.202-5.172-4.202
			c-4.004,0-6.291,3.133-6.291,6.539c0,3.581,2.362,6.589,6.589,6.589c2.014,0,4.178-1.467,4.749-3.456H278.771z"/>
		<path fill="#231F20" d="M285.857,129.323v4.923h7.186v2.561h-7.186v4.799h7.186v2.561h-10.046v-17.406h10.046v2.561H285.857z"/>
	</g>
</g>
</svg>
