<?xml version="1.0" encoding="utf-8"?>
<!-- Generator: Adobe Illustrator 19.2.1, SVG Export Plug-In . SVG Version: 6.00 Build 0)  -->
<svg version="1.1" id="Layer_1" xmlns="http://www.w3.org/2000/svg" xmlns:xlink="http://www.w3.org/1999/xlink" x="0px" y="0px"
	 width="441px" height="81.667px" viewBox="0 0 441 81.667" enable-background="new 0 0 441 81.667" xml:space="preserve">
<g>
	<g>
		<path fill="#FFFFFF" d="M32.482,81.021L7.772,8.43L1.299,6.978l0.558-6.027h34.04l0.558,6.027L29.201,8.43L46.81,61.888
			L64.357,8.43l-8.036-1.451l0.558-6.027h22.098l0.558,6.027L73.62,8.43l-24.536,69.17L32.482,81.021z"/>
		<path fill="#FFFFFF" d="M93.4,52.068c0.558,8.817,5.804,15.513,14.062,15.513c5.804,0,11.384-2.455,13.951-4.241l3.014,5.468
			c-6.474,6.027-12.277,8.706-22.433,12.054c-16.518,0-28.014-11.049-28.014-26.451c0-11.384,3.906-24.33,27.902-31.027
			c16.071,0,22.768,9.933,22.768,21.652v7.031H93.4z M106.347,45.148c0-8.482-1.563-13.839-6.139-13.839
			c-4.353,0-6.919,5.58-6.919,14.843L106.347,45.148z"/>
		<path fill="#FFFFFF" d="M156.599,43.586l10.776-18.982h11.646l0.011,18.843h-14.858l-6.682,6.613v21.652l12.054,1.451
			l-0.558,6.138h-35.714l-0.558-6.138l5.804-1.451V34.211l-5.804,0.223l-0.558-6.361l15.513-3.013l6.92-0.447L156.599,43.586z"/>
		<path fill="#FFFFFF" d="M214.511,23.385c16.63,0,22.992,4.576,22.992,16.853v21.54c0,4.241,0.223,6.362,1.228,8.371h5.245
			l0.893,6.139l-22.433,4.575l-3.683-9.151l-12.612,9.151c-10.714,0-18.415-6.027-18.415-15.402c0-5.357,2.455-9.598,5.692-12.165
			l24.553-7.589v-6.92c0-6.808-2.455-7.589-5.022-7.589c-2.009,0-3.683,0.446-5.245,1.451l-1.272,10.859l-17.032-0.03V32.529
			L214.511,23.385z M217.971,51.175l-8.705,3.46c-1.786,1.786-2.678,5.358-2.678,8.147c0,5.134,2.79,7.478,5.022,7.478
			c1.785,0,3.348-0.892,4.688-1.785l1.674-1.116V51.175z"/>
	</g>
	<g>
		<path fill="#FFFFFF" d="M268.434,24.564h3.538v20.808h-3.538V24.564z"/>
		<path fill="#FFFFFF" d="M290.073,39.368V24.564h3.419v20.808h-3.746l-8.234-14.803v14.803h-3.419V24.564h3.746L290.073,39.368z"/>
		<path fill="#FFFFFF" d="M302.108,38.565c0,2.705,1.694,4.251,4.043,4.251c1.902,0,3.419-1.219,3.419-3.091
			c0-2.11-1.873-2.794-3.3-3.299c-3.805-1.338-6.866-2.497-6.866-6.658c0-3.448,2.972-5.707,6.45-5.707
			c3.745,0,6.629,2.645,6.629,6.51h-3.419c0-2.051-1.189-3.448-3.122-3.448c-1.694,0-3.121,0.892-3.121,2.646
			c0,1.694,1.487,2.497,3.032,3.062c3.24,1.159,7.134,2.527,7.134,6.51c0,4.28-3.27,6.54-7.134,6.54
			c-3.775,0-7.164-2.645-7.164-7.312H302.108z"/>
		<path fill="#FFFFFF" d="M320.834,27.626h-5.142v-3.062h13.733v3.062h-5.172v17.746h-3.419V27.626z"/>
		<path fill="#FFFFFF" d="M333.673,24.564h3.538v20.808h-3.538V24.564z"/>
		<path fill="#FFFFFF" d="M346.603,27.626h-5.142v-3.062h13.733v3.062h-5.172v17.746h-3.419V27.626z"/>
		<path fill="#FFFFFF" d="M359.293,24.564h3.419v13.852c0,2.378,1.605,4.399,4.043,4.399c2.497,0,4.102-2.021,4.102-4.399V24.564
			h3.419v13.852c0,4.043-2.943,7.461-7.52,7.461c-4.489,0-7.461-3.418-7.461-7.461V24.564z"/>
		<path fill="#FFFFFF" d="M383.517,27.626h-5.143v-3.062h13.733v3.062h-5.173v17.746h-3.418V27.626z"/>
		<path fill="#FFFFFF" d="M399.775,27.626v5.885h8.59v3.062h-8.59v5.737h8.59v3.062h-12.009V24.564h12.009v3.062H399.775z"/>
		<path fill="#FFFFFF" d="M267.393,68.876c0-5.648,4.073-10.909,10.761-10.909s10.761,5.261,10.761,10.909
			c0,5.647-4.073,10.909-10.761,10.909S267.393,74.524,267.393,68.876z M285.318,68.876c0-4.043-2.735-7.847-7.164-7.847
			s-7.164,3.805-7.164,7.847c0,4.043,2.735,7.847,7.164,7.847S285.318,72.919,285.318,68.876z"/>
		<path fill="#FFFFFF" d="M297.413,61.534v6.599h8.59v3.062h-8.59v8.085h-3.419V58.472h12.009v3.062H297.413z"/>
		<path fill="#FFFFFF" d="M332.724,72.532c0,4.043-2.437,7.253-6.807,7.253c-4.311,0-6.748-3.24-6.748-7.283h3.419
			c0,2.467,1.1,4.221,3.329,4.221c2.259,0,3.388-1.724,3.388-4.192v-14.06h3.419V72.532z"/>
		<path fill="#FFFFFF" d="M338.548,58.472h3.419v13.852c0,2.378,1.605,4.4,4.043,4.4c2.497,0,4.102-2.022,4.102-4.4V58.472h3.419
			v13.852c0,4.043-2.943,7.461-7.52,7.461c-4.489,0-7.461-3.419-7.461-7.461V58.472z"/>
		<path fill="#FFFFFF" d="M361.999,72.473c0,2.704,1.694,4.251,4.043,4.251c1.902,0,3.419-1.219,3.419-3.091
			c0-2.111-1.873-2.795-3.3-3.3c-3.805-1.338-6.866-2.497-6.866-6.658c0-3.448,2.972-5.707,6.45-5.707
			c3.745,0,6.629,2.645,6.629,6.509h-3.419c0-2.051-1.189-3.447-3.122-3.447c-1.694,0-3.121,0.891-3.121,2.645
			c0,1.694,1.487,2.497,3.032,3.062c3.24,1.159,7.134,2.526,7.134,6.509c0,4.28-3.27,6.54-7.134,6.54
			c-3.775,0-7.164-2.645-7.164-7.312H361.999z"/>
		<path fill="#FFFFFF" d="M380.724,61.534h-5.142v-3.062h13.733v3.062h-5.172V79.28h-3.419V61.534z"/>
		<path fill="#FFFFFF" d="M393.563,58.472h3.538V79.28h-3.538V58.472z"/>
		<path fill="#FFFFFF" d="M422.989,72.592c-0.921,4.043-4.756,7.193-9.868,7.193c-6.808,0-10.939-5.083-10.939-10.939
			c0-5.647,4.043-10.879,10.581-10.879c6.183,0,9.572,3.597,10.226,8.085h-3.597c-0.505-2.854-2.764-5.023-6.183-5.023
			c-4.786,0-7.52,3.745-7.52,7.817c0,4.28,2.824,7.878,7.877,7.878c2.408,0,4.994-1.754,5.678-4.132H422.989z"/>
		<path fill="#FFFFFF" d="M431.458,61.534v5.885h8.59v3.062h-8.59v5.737h8.59v3.062H428.04V58.472h12.009v3.062H431.458z"/>
	</g>
</g>
</svg>
