<svg id="Layer_1" data-name="Layer 1" xmlns="http://www.w3.org/2000/svg" viewBox="0 0 441 81.67"><defs><style>.cls-1{fill:#ef4136;}</style></defs><title>Vera_Hor_White</title><path class="cls-1" d="M32.48,81L7.77,8.43,1.3,7,1.86,1h34l0.56,6L29.2,8.43,46.81,61.89,64.36,8.43,56.32,7l0.56-6H79l0.56,6L73.62,8.43,49.08,77.6Z"/><path class="cls-1" d="M93.4,52.07c0.56,8.82,5.8,15.51,14.06,15.51a26.79,26.79,0,0,0,14-4.24l3,5.47c-6.47,6-12.28,8.71-22.43,12.05-16.52,0-28-11-28-26.45,0-11.38,3.91-24.33,27.9-31,16.07,0,22.77,9.93,22.77,21.65v7H93.4Zm12.95-6.92c0-8.48-1.56-13.84-6.14-13.84-4.35,0-6.92,5.58-6.92,14.84Z"/><path class="cls-1" d="M156.6,43.59l10.78-19H179V43.45H164.17l-6.68,6.61V71.71l12.05,1.45L169,79.3H133.27l-0.56-6.14,5.8-1.45V34.21l-5.8.22-0.56-6.36,15.51-3,6.92-.45Z"/><path class="cls-1" d="M214.51,23.38c16.63,0,23,4.58,23,16.85V61.78c0,4.24.22,6.36,1.23,8.37H244l0.89,6.14-22.43,4.58-3.68-9.15-12.61,9.15c-10.71,0-18.41-6-18.41-15.4a15.33,15.33,0,0,1,5.69-12.17L218,45.71V38.79c0-6.81-2.46-7.59-5-7.59a9.28,9.28,0,0,0-5.25,1.45l-1.27,10.86-17,0V32.53ZM218,51.17l-8.71,3.46c-1.79,1.79-2.68,5.36-2.68,8.15,0,5.13,2.79,7.48,5,7.48a8.63,8.63,0,0,0,4.69-1.79L218,67.36V51.17Z"/><path class="cls-1" d="M268.43,24.56H272V45.37h-3.54V24.56Z"/><path class="cls-1" d="M290.07,39.37V24.56h3.42V45.37h-3.75l-8.23-14.8v14.8h-3.42V24.56h3.75Z"/><path class="cls-1" d="M302.11,38.57a3.88,3.88,0,0,0,4,4.25,3.16,3.16,0,0,0,3.42-3.09c0-2.11-1.87-2.79-3.3-3.3-3.8-1.34-6.87-2.5-6.87-6.66,0-3.45,3-5.71,6.45-5.71a6.36,6.36,0,0,1,6.63,6.51h-3.42c0-2.05-1.19-3.45-3.12-3.45-1.69,0-3.12.89-3.12,2.65s1.49,2.5,3,3.06C309.09,34,313,35.35,313,39.34c0,4.28-3.27,6.54-7.13,6.54a7,7,0,0,1-7.16-7.31h3.42Z"/><path class="cls-1" d="M320.83,27.63h-5.14V24.56h13.73v3.06h-5.17V45.37h-3.42V27.63Z"/><path class="cls-1" d="M333.67,24.56h3.54V45.37h-3.54V24.56Z"/><path class="cls-1" d="M346.6,27.63h-5.14V24.56h13.73v3.06H350V45.37H346.6V27.63Z"/><path class="cls-1" d="M359.29,24.56h3.42V38.42a4.08,4.08,0,1,0,8.14,0V24.56h3.42V38.42a7.49,7.49,0,0,1-15,0V24.56Z"/><path class="cls-1" d="M383.52,27.63h-5.14V24.56h13.73v3.06h-5.17V45.37h-3.42V27.63Z"/><path class="cls-1" d="M399.78,27.63v5.89h8.59v3.06h-8.59v5.74h8.59v3.06h-12V24.56h12v3.06h-8.59Z"/><path class="cls-1" d="M267.39,68.88a10.76,10.76,0,1,1,10.76,10.91A10.6,10.6,0,0,1,267.39,68.88Zm17.92,0c0-4-2.73-7.85-7.16-7.85S271,64.83,271,68.88s2.73,7.85,7.16,7.85S285.32,72.92,285.32,68.88Z"/><path class="cls-1" d="M297.41,61.53v6.6H306v3.06h-8.59v8.09H294V58.47h12v3.06h-8.59Z"/><path class="cls-1" d="M332.72,72.53c0,4-2.44,7.25-6.81,7.25s-6.75-3.24-6.75-7.28h3.42c0,2.47,1.1,4.22,3.33,4.22s3.39-1.72,3.39-4.19V58.47h3.42V72.53Z"/><path class="cls-1" d="M338.55,58.47H342V72.32a4.08,4.08,0,1,0,8.14,0V58.47h3.42V72.32a7.49,7.49,0,0,1-15,0V58.47Z"/><path class="cls-1" d="M362,72.47a3.88,3.88,0,0,0,4,4.25,3.16,3.16,0,0,0,3.42-3.09c0-2.11-1.87-2.79-3.3-3.3-3.8-1.34-6.87-2.5-6.87-6.66,0-3.45,3-5.71,6.45-5.71a6.36,6.36,0,0,1,6.63,6.51H369c0-2.05-1.19-3.45-3.12-3.45-1.69,0-3.12.89-3.12,2.65s1.49,2.5,3,3.06c3.24,1.16,7.13,2.53,7.13,6.51,0,4.28-3.27,6.54-7.13,6.54a7,7,0,0,1-7.16-7.31H362Z"/><path class="cls-1" d="M380.72,61.53h-5.14V58.47h13.73v3.06h-5.17V79.28h-3.42V61.53Z"/><path class="cls-1" d="M393.56,58.47h3.54V79.28h-3.54V58.47Z"/><path class="cls-1" d="M423,72.59c-0.92,4-4.76,7.19-9.87,7.19a10.58,10.58,0,0,1-10.94-10.94c0-5.65,4-10.88,10.58-10.88,6.18,0,9.57,3.6,10.23,8.09h-3.6a6,6,0,0,0-6.18-5c-4.79,0-7.52,3.75-7.52,7.82a7.5,7.5,0,0,0,7.88,7.88,6.15,6.15,0,0,0,5.68-4.13H423Z"/><path class="cls-1" d="M431.46,61.53v5.89H440v3.06h-8.59v5.74H440v3.06H428V58.47h12v3.06h-8.59Z"/></svg>